# xmcd CD database file
#
# Track frame offsets:
#	150
#	13935
#	27859
#	56367
#	68271
#	80313
#	91344
#	134893
#	147288
#	159854
#	174454
#	190018
#	203417
#	220117
#	251923
#	280974
#	293641
#	326537
#
# Disc length: 4611 seconds
#
# Revision: 0
# Processed by: cddbd v1.5.2PL0 Copyright (c) Steve Scherf et al.
# Submitted via: CDex 1.70beta2
#
DISCID=f8120112
DTITLE=Erroll Garner - Cherchez la femme
DYEAR=2005
DGENRE=Jazz
TTITLE0=Penthouse Serenade
TTITLE1=I Cover the Waterfront
TTITLE2=Cherokee
TTITLE3=Moonglow
TTITLE4=The Man I Love
TTITLE5=Erroll's Peril
TTITLE6=Perpetual Emotion (Garnerology)
TTITLE7=The Real Gone Tune
TTITLE8=Laura
TTITLE9=The Petit Waltz Bounce
TTITLE10=How High the Moon
TTITLE11=Penthouse Serenade
TTITLE12=Dancing In the Dark
TTITLE13=Caravan
TTITLE14=Will You Still Be Mine
TTITLE15=Misty
TTITLE16=7-11 Jump
TTITLE17=In a Mellow Tune
EXTD=YEAR: 2005
EXTT0=
EXTT1=
EXTT2=
EXTT3=
EXTT4=
EXTT5=
EXTT6=
EXTT7=
EXTT8=
EXTT9=
EXTT10=
EXTT11=
EXTT12=
EXTT13=
EXTT14=
EXTT15=
EXTT16=
EXTT17=
PLAYORDER=
